<?xml version="1.0" encoding="utf-8"?>
<!-- Generator: Adobe Illustrator 19.0.0, SVG Export Plug-In . SVG Version: 6.00 Build 0)  -->
<svg version="1.1" id="图层_1" xmlns="http://www.w3.org/2000/svg" xmlns:xlink="http://www.w3.org/1999/xlink" x="0px" y="0px"
	 viewBox="0 0 64 64" style="enable-background:new 0 0 64 64;" xml:space="preserve">
<style type="text/css">
	.st0{fill:#2395EE;}
	.st1{display:none;}
	.st2{display:inline;fill:#FE7561;}
	.st3{display:inline;fill:#FFA726;}
	.st4{display:inline;fill:#7DC654;}
	.st5{display:inline;fill:#2395EE;}
</style>
<g id="lately">
	<path id="XMLID_6_" class="st0" d="M32,4.7C16.9,4.7,4.7,16.9,4.7,32S16.9,59.3,32,59.3S59.3,47.1,59.3,32S47.1,4.7,32,4.7z
		 M32,55.8C18.9,55.8,8.2,45.1,8.2,32S18.9,8.2,32,8.2S55.8,18.9,55.8,32S45.1,55.8,32,55.8z"/>
	<path id="XMLID_12_" class="st0" d="M38.9,22.3L32,29.2l-9.7-9.7c-0.8-0.8-2-0.8-2.8,0s-0.8,2,0,2.8L30.2,33
		c0.5,0.5,1.2,0.8,1.9,0.8s1.4-0.3,1.9-0.8l7.8-7.8c0.8-0.8,0.8-2,0-2.8C40.9,21.5,39.6,21.5,38.9,22.3z"/>
	<circle id="XMLID_13_" class="st0" cx="39.3" cy="48" r="2"/>
</g>
<g id="follow" class="st1">
	<path id="XMLID_4_" class="st2" d="M53,53H11V11h31h11h4c0-2.2-1.8-4-4-4H11c-2.2,0-4,1.8-4,4v42c0,2.2,1.8,4,4,4h42
		c2.2,0,4-1.8,4-4V30h-4V53z"/>
	<polygon id="XMLID_8_" class="st2" points="29.9,40.6 18.1,28.8 15.3,31.6 29.9,46.2 58,18.1 55.2,15.3 	"/>
</g>
<g id="bank" class="st1">
	<path id="XMLID_24_" class="st3" d="M32,4.7C16.9,4.7,4.7,16.9,4.7,32S16.9,59.3,32,59.3S59.3,47.1,59.3,32S47.1,4.7,32,4.7z
		 M32,55.8C18.9,55.8,8.2,45.1,8.2,32S18.9,8.2,32,8.2S55.8,18.9,55.8,32S45.1,55.8,32,55.8z"/>
	<path id="XMLID_28_" class="st3" d="M43,27h-6.2l4.1-7c0.8-1.3-0.2-2.9-1.7-3c-0.7,0-1.4,0.4-1.7,1l-5.3,9h-0.3l-5.3-9
		c-0.4-0.6-1-1-1.7-1c-1.5,0-2.4,1.7-1.7,3l4.1,7H21c-1.1,0-2,0.9-2,2s0.9,2,2,2h9v5h-8c-1.1,0-2,0.9-2,2s0.9,2,2,2h8v8
		c0,1.1,0.9,2,2,2c1.1,0,2-0.9,2-2v-8h8c1.1,0,2-0.9,2-2s-0.9-2-2-2h-8v-5h9c1.1,0,2-0.9,2-2S44.1,27,43,27z"/>
</g>
<g id="express" class="st1">
	<path id="XMLID_7_" class="st4" d="M31,21h-8c-1.1,0-2,0.9-2,2s0.9,2,2,2h8c1.1,0,2-0.9,2-2S32.1,21,31,21z"/>
	<path id="XMLID_21_" class="st4" d="M31,29H15c-1.1,0-2,0.9-2,2c0,1.1,0.9,2,2,2h16c1.1,0,2-0.9,2-2S32.1,29,31,29z"/>
	<path id="XMLID_32_" class="st4" d="M58.8,25.8l-7.7-7.7c-0.8-0.8-1.8-1.2-2.8-1.2H41v-2c0-2.2-1.8-4-4-4H7c-2.2,0-4,1.8-4,4v29
		c0,2.2,1.8,4,4,4h2.2c0.9,3.4,4,6,7.8,6s6.9-2.6,7.8-6h13.5c0.9,3.4,4,6,7.8,6s6.9-2.6,7.8-6H56c2.2,0,4-1.8,4-4V28.7
		C60,27.6,59.6,26.6,58.8,25.8z M20.5,48c-0.7,1.2-2,2-3.5,2s-2.8-0.8-3.5-2c-0.3-0.6-0.5-1.3-0.5-2s0.2-1.4,0.5-2
		c0.7-1.2,2-2,3.5-2s2.8,0.8,3.5,2c0.3,0.6,0.5,1.3,0.5,2S20.8,47.4,20.5,48z M49.5,48c-0.7,1.2-2,2-3.5,2s-2.8-0.8-3.5-2
		c-0.3-0.6-0.5-1.3-0.5-2s0.2-1.4,0.5-2c0.7-1.2,2-2,3.5-2s2.8,0.8,3.5,2c0.3,0.6,0.5,1.3,0.5,2S49.8,47.4,49.5,48z M56,44h-2.2
		c-0.9-3.4-4-6-7.8-6s-6.9,2.6-7.8,6H24.8c-0.9-3.4-4-6-7.8-6s-6.9,2.6-7.8,6H7V15h30v6h11.3l7.7,7.7V44z"/>
</g>
<g id="travel" class="st1">
	<path id="XMLID_19_" class="st5" d="M55,15h-8h-4V9c0-2.2-1.8-4-4-4H25c-2.2,0-4,1.8-4,4v6h-4H9c-2.2,0-4,1.8-4,4v35
		c0,2.2,1.8,4,4,4h8h4h22h4h8c2.2,0,4-1.8,4-4V19C59,16.8,57.2,15,55,15z M25,9h14v6H25V9z M9,54V19h8v35H9z M21,54V19h4h14h4v35H21
		z M55,54h-8V19h8V54z"/>
</g>
<g id="local" class="st1">
	<circle id="XMLID_9_" class="st3" cx="32" cy="25.3" r="5.3"/>
	<path id="XMLID_30_" class="st3" d="M46,59H35.8C42.4,52.5,55,38.1,55,24.5C55.1,11.7,44.7,1.4,32,1.4S8.9,11.7,8.9,24.5
		c0,13.7,12.7,28,19.2,34.5H18c-1.1,0-2,0.9-2,2s0.9,2,2,2h28c1.1,0,2-0.9,2-2S47.1,59,46,59z M12.9,24.5C12.9,14,21.5,5.4,32,5.4
		S51.1,14,51.1,24.5c0,12.9-13.3,27.2-19.1,32.7C25,50.4,12.9,36.4,12.9,24.5z"/>
</g>
</svg>
